<?xml version="1.0" standalone="no"?>
<!DOCTYPE svg PUBLIC "-//W3C//DTD SVG 20010904//EN"
 "http://www.w3.org/TR/2001/REC-SVG-20010904/DTD/svg10.dtd">
<svg version="1.0" xmlns="http://www.w3.org/2000/svg"
 width="256.000000pt" height="256.000000pt" viewBox="0 0 256.000000 256.000000"
 preserveAspectRatio="xMidYMid meet">

<g transform="translate(0.000000,256.000000) scale(0.100000,-0.100000)"
fill="#000000" stroke="none">
<path d="M293 2541 c-101 -37 -192 -118 -234 -210 -11 -25 -25 -54 -30 -63 -5
-10 -9 -412 -9 -953 0 -1047 -4 -992 72 -1105 23 -35 63 -77 95 -100 105 -75
37 -71 1109 -68 l959 3 58 28 c77 38 148 111 189 194 l33 68 0 965 0 965 -29
60 c-38 77 -124 163 -201 201 l-60 29 -950 2 c-906 2 -952 2 -1002 -16z m1645
-613 c7 -7 12 -25 12 -42 0 -18 10 -40 24 -55 13 -15 33 -54 44 -88 19 -58 19
-64 4 -72 -13 -8 -17 -28 -18 -110 -2 -103 2 -115 41 -123 15 -3 19 -10 16
-28 -8 -47 -5 -555 3 -577 7 -19 4 -22 -27 -28 -20 -4 -44 -2 -55 4 -18 10
-19 15 -11 40 6 17 8 127 5 287 -8 359 -15 476 -29 471 -18 -6 -69 -100 -69
-127 0 -14 -4 -30 -9 -35 -4 -6 -1 -30 7 -55 27 -78 39 -246 26 -372 -20 -203
-59 -273 -152 -273 -61 0 -91 26 -122 104 -21 52 -22 73 -23 271 0 248 10 296
72 350 30 27 42 31 77 28 22 -3 48 -8 56 -11 11 -5 22 9 42 60 25 62 26 68 11
85 -23 25 -14 169 12 198 18 19 18 23 3 48 -12 19 -14 32 -7 45 11 20 49 23
67 5z m-588 -98 c0 -5 -9 -10 -20 -10 -11 0 -20 5 -20 10 0 6 9 10 20 10 11 0
20 -4 20 -10z m391 -17 c1 -10 1 -50 -1 -89 -2 -61 1 -74 17 -83 16 -9 14 -10
-14 -11 -37 0 -41 9 -44 95 -1 38 3 68 12 83 17 26 28 28 30 5z m-777 -45 c9
-12 16 -38 16 -58 0 -49 -24 -80 -61 -80 -22 0 -29 -5 -29 -20 0 -15 -7 -20
-25 -20 l-26 0 2 100 2 100 53 0 c43 0 56 -4 68 -22z m151 14 c6 -4 -3 -9 -20
-12 -30 -5 -30 -6 -30 -73 0 -65 -1 -67 -25 -67 -25 0 -25 1 -25 80 l0 79 45
-1 c25 0 50 -3 55 -6z m135 -12 c24 -24 27 -86 4 -118 -10 -15 -25 -22 -48
-22 -44 0 -64 18 -72 65 -11 77 65 126 116 75z m98 -68 c2 -53 -1 -89 -9 -98
-13 -16 -65 -19 -74 -4 -4 6 4 9 17 7 23 -2 23 0 23 91 0 87 1 93 20 90 18 -3
20 -12 23 -86z m156 69 c28 -31 17 -55 -27 -59 -34 -3 -37 -6 -37 -32 0 -25 5
-31 33 -39 l32 -9 -41 -1 c-50 -1 -65 14 -71 73 -4 36 -1 47 18 65 28 26 70
27 93 2z m145 6 c8 -11 5 -13 -19 -9 -25 3 -30 0 -36 -22 -9 -36 3 -93 21
-100 8 -3 22 -2 32 1 11 4 14 3 9 -5 -11 -18 -67 -14 -88 5 -26 23 -25 96 2
123 23 23 62 26 79 7z m-1181 -224 c6 -13 -23 -126 -100 -388 -60 -203 -107
-379 -106 -390 2 -16 12 -21 48 -23 25 -1 51 2 58 6 7 5 30 51 51 103 52 131
65 127 69 -25 2 -78 -1 -123 -9 -132 -17 -20 -311 -20 -328 0 -9 11 1 56 43
202 31 104 81 276 112 382 31 106 53 199 50 207 -8 22 -79 20 -98 -2 -9 -10
-30 -58 -48 -106 -34 -92 -46 -109 -61 -86 -12 20 -11 226 1 250 10 17 23 19
160 19 132 0 150 -2 158 -17z m992 -31 c92 -46 117 -198 48 -295 -22 -30 -22
-27 20 -102 26 -45 24 -177 -4 -230 -30 -59 -70 -76 -174 -73 -84 3 -85 3 -81
28 11 66 11 616 0 642 -6 15 -8 32 -4 37 11 18 155 13 195 -7z m881 -5 c70
-47 95 -114 106 -287 8 -137 -11 -292 -45 -359 -37 -74 -71 -91 -180 -91 -88
0 -109 12 -81 47 22 26 26 589 5 654 -9 26 -16 50 -16 53 0 3 40 6 89 6 75 0
93 -3 122 -23z m-1648 -43 c47 -46 62 -113 62 -274 0 -175 -15 -248 -61 -296
-39 -42 -79 -45 -123 -9 -51 43 -65 107 -66 290 0 235 32 315 125 315 27 0 45
-7 63 -26z m210 -6 c13 -10 26 -60 48 -183 17 -93 35 -174 40 -179 15 -16 29
35 53 194 27 172 32 180 100 180 59 0 72 -11 57 -47 -8 -21 -11 -117 -8 -348
2 -176 5 -329 8 -340 4 -18 -1 -20 -56 -20 -55 0 -60 2 -56 20 7 38 12 318 6
343 -14 56 -34 -17 -65 -238 -14 -94 -24 -120 -45 -120 -18 0 -20 9 -49 180
-32 190 -37 210 -47 210 -5 0 -11 -11 -15 -24 -6 -24 0 -315 7 -351 4 -18 -1
-20 -46 -20 -45 0 -50 2 -46 20 3 11 6 164 8 340 3 231 0 327 -8 348 -10 23
-10 31 2 38 21 13 93 11 112 -3z m696 -697 c37 -35 39 -54 7 -86 -22 -22 -29
-23 -101 -18 -64 5 -84 3 -112 -12 -42 -23 -86 -12 -91 23 -3 18 1 22 22 22
14 0 28 5 31 11 4 6 19 7 36 4 30 -7 37 3 18 22 -26 26 38 61 112 62 39 1 52
-4 78 -28z m-325 -129 c-6 -9 -17 -17 -25 -17 -18 0 -24 32 -8 51 11 13 14 13
28 -1 12 -12 13 -19 5 -33z m-74 20 c0 -11 -37 -32 -44 -25 -8 9 14 33 30 33
8 0 14 -3 14 -8z m355 -21 c3 -5 1 -13 -5 -16 -15 -9 -43 3 -35 15 8 13 32 13
40 1z m-55 -77 c0 -8 -5 -12 -10 -9 -6 4 -8 11 -5 16 9 14 15 11 15 -7z"/>
<path d="M1886 1743 c-3 -3 -6 -24 -6 -45 0 -27 4 -38 15 -38 11 0 15 11 15
39 0 38 -10 57 -24 44z"/>
<path d="M1720 1415 c-24 -62 -32 -175 -27 -345 6 -178 16 -238 42 -260 21
-18 42 2 57 54 19 62 17 478 -2 531 -19 50 -55 61 -70 20z"/>
<path d="M892 1708 c2 -48 7 -63 18 -63 11 0 16 15 18 63 3 57 1 62 -18 62
-19 0 -21 -5 -18 -62z"/>
<path d="M1187 1763 c-4 -3 -7 -30 -7 -59 0 -60 23 -83 40 -38 23 58 -2 129
-33 97z"/>
<path d="M1442 1748 c2 -12 10 -23 18 -23 22 0 19 39 -3 43 -15 3 -18 -1 -15
-20z"/>
<path d="M1370 1471 c-11 -21 -14 -209 -4 -235 9 -24 51 -20 68 7 20 30 30
107 21 163 -10 70 -61 109 -85 65z"/>
<path d="M1371 1141 c-14 -25 -14 -226 -1 -252 15 -27 47 -24 67 8 28 42 26
191 -3 230 -26 35 -49 40 -63 14z"/>
<path d="M2250 1471 c-14 -27 -14 -585 0 -612 19 -35 49 -23 73 29 19 42 22
68 25 243 5 220 -6 297 -44 335 -28 29 -40 30 -54 5z"/>
<path d="M611 1436 c-40 -48 -41 -453 -1 -501 17 -21 37 -8 52 33 20 56 18
407 -2 446 -18 35 -33 42 -49 22z"/>
</g>
</svg>
